<svg xmlns="http://www.w3.org/2000/svg" width="800" height="100" viewBox="0 0 800 100">
  <g id="spectrum">
    <rect id="bar_0" width="6" height="10.00" x="0" y="45.00" fill="#000000" rx="2" ry="2"/>
    <rect id="bar_1" width="6" height="10.00" x="13" y="45.00" fill="#000000" rx="2" ry="2"/>
    <rect id="bar_2" width="6" height="13.46" x="26" y="43.27" fill="#000000" rx="2" ry="2"/>
    <rect id="bar_3" width="6" height="10.00" x="39" y="45.00" fill="#000000" rx="2" ry="2"/>
    <rect id="bar_4" width="6" height="10.73" x="52" y="44.63" fill="#000000" rx="2" ry="2"/>
    <rect id="bar_5" width="6" height="47.25" x="65" y="26.38" fill="#000000" rx="2" ry="2"/>
    <rect id="bar_6" width="6" height="54.76" x="78" y="22.62" fill="#000000" rx="2" ry="2"/>
    <rect id="bar_7" width="6" height="57.27" x="91" y="21.37" fill="#000000" rx="2" ry="2"/>
    <rect id="bar_8" width="6" height="31.44" x="104" y="34.28" fill="#000000" rx="2" ry="2"/>
    <rect id="bar_9" width="6" height="35.17" x="117" y="32.42" fill="#000000" rx="2" ry="2"/>
    <rect id="bar_10" width="6" height="37.64" x="130" y="31.18" fill="#000000" rx="2" ry="2"/>
    <rect id="bar_11" width="6" height="36.95" x="143" y="31.52" fill="#000000" rx="2" ry="2"/>
    <rect id="bar_12" width="6" height="80.38" x="156" y="9.81" fill="#000000" rx="2" ry="2"/>
    <rect id="bar_13" width="6" height="51.47" x="169" y="24.27" fill="#000000" rx="2" ry="2"/>
    <rect id="bar_14" width="6" height="54.08" x="182" y="22.96" fill="#000000" rx="2" ry="2"/>
    <rect id="bar_15" width="6" height="19.00" x="195" y="40.50" fill="#000000" rx="2" ry="2"/>
    <rect id="bar_16" width="6" height="44.85" x="208" y="27.58" fill="#000000" rx="2" ry="2"/>
    <rect id="bar_17" width="6" height="54.51" x="221" y="22.74" fill="#000000" rx="2" ry="2"/>
    <rect id="bar_18" width="6" height="44.86" x="234" y="27.57" fill="#000000" rx="2" ry="2"/>
    <rect id="bar_19" width="6" height="31.28" x="247" y="34.36" fill="#000000" rx="2" ry="2"/>
    <rect id="bar_20" width="6" height="10.57" x="260" y="44.71" fill="#000000" rx="2" ry="2"/>
    <rect id="bar_21" width="6" height="11.40" x="273" y="44.30" fill="#000000" rx="2" ry="2"/>
    <rect id="bar_22" width="6" height="10.00" x="286" y="45.00" fill="#000000" rx="2" ry="2"/>
    <rect id="bar_23" width="6" height="25.15" x="299" y="37.43" fill="#000000" rx="2" ry="2"/>
    <rect id="bar_24" width="6" height="32.34" x="312" y="33.83" fill="#000000" rx="2" ry="2"/>
    <rect id="bar_25" width="6" height="84.85" x="325" y="7.57" fill="#000000" rx="2" ry="2"/>
    <rect id="bar_26" width="6" height="75.48" x="338" y="12.26" fill="#000000" rx="2" ry="2"/>
    <rect id="bar_27" width="6" height="48.41" x="351" y="25.80" fill="#000000" rx="2" ry="2"/>
    <rect id="bar_28" width="6" height="51.13" x="364" y="24.44" fill="#000000" rx="2" ry="2"/>
    <rect id="bar_29" width="6" height="45.92" x="377" y="27.04" fill="#000000" rx="2" ry="2"/>
    <rect id="bar_30" width="6" height="34.74" x="390" y="32.63" fill="#000000" rx="2" ry="2"/>
    <rect id="bar_31" width="6" height="66.81" x="403" y="16.59" fill="#000000" rx="2" ry="2"/>
    <rect id="bar_32" width="6" height="68.63" x="416" y="15.68" fill="#000000" rx="2" ry="2"/>
    <rect id="bar_33" width="6" height="69.14" x="429" y="15.43" fill="#000000" rx="2" ry="2"/>
    <rect id="bar_34" width="6" height="66.63" x="442" y="16.68" fill="#000000" rx="2" ry="2"/>
    <rect id="bar_35" width="6" height="64.43" x="455" y="17.78" fill="#000000" rx="2" ry="2"/>
    <rect id="bar_36" width="6" height="40.28" x="468" y="29.86" fill="#000000" rx="2" ry="2"/>
    <rect id="bar_37" width="6" height="39.51" x="481" y="30.24" fill="#000000" rx="2" ry="2"/>
    <rect id="bar_38" width="6" height="65.99" x="494" y="17.00" fill="#000000" rx="2" ry="2"/>
    <rect id="bar_39" width="6" height="61.49" x="507" y="19.26" fill="#000000" rx="2" ry="2"/>
    <rect id="bar_40" width="6" height="52.68" x="520" y="23.66" fill="#000000" rx="2" ry="2"/>
    <rect id="bar_41" width="6" height="65.57" x="533" y="17.21" fill="#000000" rx="2" ry="2"/>
    <rect id="bar_42" width="6" height="61.71" x="546" y="19.15" fill="#000000" rx="2" ry="2"/>
    <rect id="bar_43" width="6" height="100.00" x="559" y="0.00" fill="#000000" rx="2" ry="2"/>
    <rect id="bar_44" width="6" height="47.73" x="572" y="26.14" fill="#000000" rx="2" ry="2"/>
    <rect id="bar_45" width="6" height="39.94" x="585" y="30.03" fill="#000000" rx="2" ry="2"/>
    <rect id="bar_46" width="6" height="32.78" x="598" y="33.61" fill="#000000" rx="2" ry="2"/>
    <rect id="bar_47" width="6" height="26.48" x="611" y="36.76" fill="#000000" rx="2" ry="2"/>
    <rect id="bar_48" width="6" height="12.31" x="624" y="43.84" fill="#000000" rx="2" ry="2"/>
    <rect id="bar_49" width="6" height="10.00" x="637" y="45.00" fill="#000000" rx="2" ry="2"/>
    <rect id="bar_50" width="6" height="10.00" x="650" y="45.00" fill="#000000" rx="2" ry="2"/>
    <rect id="bar_51" width="6" height="10.00" x="663" y="45.00" fill="#000000" rx="2" ry="2"/>
  </g>
</svg>