<svg xmlns="http://www.w3.org/2000/svg" width="825" height="100" viewBox="0 0 825 100">
  <g id="spectrum">
    <rect id="bar_0" width="6" height="10.00" x="0" y="45.00" fill="#000000" rx="2" ry="2"/>
    <rect id="bar_1" width="6" height="10.00" x="13" y="45.00" fill="#000000" rx="2" ry="2"/>
    <rect id="bar_2" width="6" height="10.00" x="26" y="45.00" fill="#000000" rx="2" ry="2"/>
    <rect id="bar_3" width="6" height="10.00" x="39" y="45.00" fill="#000000" rx="2" ry="2"/>
    <rect id="bar_4" width="6" height="18.71" x="52" y="40.64" fill="#000000" rx="2" ry="2"/>
    <rect id="bar_5" width="6" height="17.97" x="65" y="41.01" fill="#000000" rx="2" ry="2"/>
    <rect id="bar_6" width="6" height="39.79" x="78" y="30.11" fill="#000000" rx="2" ry="2"/>
    <rect id="bar_7" width="6" height="70.31" x="91" y="14.85" fill="#000000" rx="2" ry="2"/>
    <rect id="bar_8" width="6" height="98.26" x="104" y="0.87" fill="#000000" rx="2" ry="2"/>
    <rect id="bar_9" width="6" height="57.93" x="117" y="21.04" fill="#000000" rx="2" ry="2"/>
    <rect id="bar_10" width="6" height="68.54" x="130" y="15.73" fill="#000000" rx="2" ry="2"/>
    <rect id="bar_11" width="6" height="52.59" x="143" y="23.70" fill="#000000" rx="2" ry="2"/>
    <rect id="bar_12" width="6" height="62.43" x="156" y="18.79" fill="#000000" rx="2" ry="2"/>
    <rect id="bar_13" width="6" height="67.30" x="169" y="16.35" fill="#000000" rx="2" ry="2"/>
    <rect id="bar_14" width="6" height="79.88" x="182" y="10.06" fill="#000000" rx="2" ry="2"/>
    <rect id="bar_15" width="6" height="83.80" x="195" y="8.10" fill="#000000" rx="2" ry="2"/>
    <rect id="bar_16" width="6" height="83.28" x="208" y="8.36" fill="#000000" rx="2" ry="2"/>
    <rect id="bar_17" width="6" height="74.83" x="221" y="12.58" fill="#000000" rx="2" ry="2"/>
    <rect id="bar_18" width="6" height="68.70" x="234" y="15.65" fill="#000000" rx="2" ry="2"/>
    <rect id="bar_19" width="6" height="52.79" x="247" y="23.61" fill="#000000" rx="2" ry="2"/>
    <rect id="bar_20" width="6" height="43.60" x="260" y="28.20" fill="#000000" rx="2" ry="2"/>
    <rect id="bar_21" width="6" height="50.61" x="273" y="24.69" fill="#000000" rx="2" ry="2"/>
    <rect id="bar_22" width="6" height="50.56" x="286" y="24.72" fill="#000000" rx="2" ry="2"/>
    <rect id="bar_23" width="6" height="43.53" x="299" y="28.24" fill="#000000" rx="2" ry="2"/>
    <rect id="bar_24" width="6" height="45.46" x="312" y="27.27" fill="#000000" rx="2" ry="2"/>
    <rect id="bar_25" width="6" height="65.88" x="325" y="17.06" fill="#000000" rx="2" ry="2"/>
    <rect id="bar_26" width="6" height="67.78" x="338" y="16.11" fill="#000000" rx="2" ry="2"/>
    <rect id="bar_27" width="6" height="61.96" x="351" y="19.02" fill="#000000" rx="2" ry="2"/>
    <rect id="bar_28" width="6" height="67.87" x="364" y="16.06" fill="#000000" rx="2" ry="2"/>
    <rect id="bar_29" width="6" height="65.67" x="377" y="17.16" fill="#000000" rx="2" ry="2"/>
    <rect id="bar_30" width="6" height="53.02" x="390" y="23.49" fill="#000000" rx="2" ry="2"/>
    <rect id="bar_31" width="6" height="68.30" x="403" y="15.85" fill="#000000" rx="2" ry="2"/>
    <rect id="bar_32" width="6" height="83.49" x="416" y="8.25" fill="#000000" rx="2" ry="2"/>
    <rect id="bar_33" width="6" height="83.07" x="429" y="8.46" fill="#000000" rx="2" ry="2"/>
    <rect id="bar_34" width="6" height="86.22" x="442" y="6.89" fill="#000000" rx="2" ry="2"/>
    <rect id="bar_35" width="6" height="84.34" x="455" y="7.83" fill="#000000" rx="2" ry="2"/>
    <rect id="bar_36" width="6" height="81.25" x="468" y="9.38" fill="#000000" rx="2" ry="2"/>
    <rect id="bar_37" width="6" height="81.42" x="481" y="9.29" fill="#000000" rx="2" ry="2"/>
    <rect id="bar_38" width="6" height="100.00" x="494" y="0.00" fill="#000000" rx="2" ry="2"/>
    <rect id="bar_39" width="6" height="79.50" x="507" y="10.25" fill="#000000" rx="2" ry="2"/>
    <rect id="bar_40" width="6" height="78.29" x="520" y="10.85" fill="#000000" rx="2" ry="2"/>
    <rect id="bar_41" width="6" height="63.25" x="533" y="18.37" fill="#000000" rx="2" ry="2"/>
    <rect id="bar_42" width="6" height="66.17" x="546" y="16.91" fill="#000000" rx="2" ry="2"/>
    <rect id="bar_43" width="6" height="68.12" x="559" y="15.94" fill="#000000" rx="2" ry="2"/>
    <rect id="bar_44" width="6" height="56.90" x="572" y="21.55" fill="#000000" rx="2" ry="2"/>
    <rect id="bar_45" width="6" height="50.15" x="585" y="24.92" fill="#000000" rx="2" ry="2"/>
    <rect id="bar_46" width="6" height="73.16" x="598" y="13.42" fill="#000000" rx="2" ry="2"/>
    <rect id="bar_47" width="6" height="65.52" x="611" y="17.24" fill="#000000" rx="2" ry="2"/>
    <rect id="bar_48" width="6" height="72.53" x="624" y="13.73" fill="#000000" rx="2" ry="2"/>
    <rect id="bar_49" width="6" height="67.65" x="637" y="16.18" fill="#000000" rx="2" ry="2"/>
    <rect id="bar_50" width="6" height="68.57" x="650" y="15.72" fill="#000000" rx="2" ry="2"/>
    <rect id="bar_51" width="6" height="66.03" x="663" y="16.98" fill="#000000" rx="2" ry="2"/>
    <rect id="bar_52" width="6" height="63.49" x="676" y="18.25" fill="#000000" rx="2" ry="2"/>
    <rect id="bar_53" width="6" height="61.90" x="689" y="19.05" fill="#000000" rx="2" ry="2"/>
    <rect id="bar_54" width="6" height="53.09" x="702" y="23.45" fill="#000000" rx="2" ry="2"/>
    <rect id="bar_55" width="6" height="20.34" x="715" y="39.83" fill="#000000" rx="2" ry="2"/>
    <rect id="bar_56" width="6" height="10.00" x="728" y="45.00" fill="#000000" rx="2" ry="2"/>
    <rect id="bar_57" width="6" height="10.00" x="741" y="45.00" fill="#000000" rx="2" ry="2"/>
    <rect id="bar_58" width="6" height="10.00" x="754" y="45.00" fill="#000000" rx="2" ry="2"/>
    <rect id="bar_59" width="6" height="10.00" x="767" y="45.00" fill="#000000" rx="2" ry="2"/>
    <rect id="bar_60" width="6" height="10.00" x="780" y="45.00" fill="#000000" rx="2" ry="2"/>
    <rect id="bar_61" width="6" height="10.00" x="793" y="45.00" fill="#000000" rx="2" ry="2"/>
    <rect id="bar_62" width="6" height="10.00" x="806" y="45.00" fill="#000000" rx="2" ry="2"/>
    <rect id="bar_63" width="6" height="10.00" x="819" y="45.00" fill="#000000" rx="2" ry="2"/>
  </g>
</svg>