<svg xmlns="http://www.w3.org/2000/svg" width="800" height="100" viewBox="0 0 800 100">
  <g id="spectrum">
    <rect id="bar_0" width="6" height="10.00" x="0" y="45.00" fill="#000000" rx="2" ry="2"/>
    <rect id="bar_1" width="6" height="10.00" x="13" y="45.00" fill="#000000" rx="2" ry="2"/>
    <rect id="bar_2" width="6" height="10.00" x="26" y="45.00" fill="#000000" rx="2" ry="2"/>
    <rect id="bar_3" width="6" height="10.00" x="39" y="45.00" fill="#000000" rx="2" ry="2"/>
    <rect id="bar_4" width="6" height="10.00" x="52" y="45.00" fill="#000000" rx="2" ry="2"/>
    <rect id="bar_5" width="6" height="10.00" x="65" y="45.00" fill="#000000" rx="2" ry="2"/>
    <rect id="bar_6" width="6" height="36.88" x="78" y="31.56" fill="#000000" rx="2" ry="2"/>
    <rect id="bar_7" width="6" height="60.30" x="91" y="19.85" fill="#000000" rx="2" ry="2"/>
    <rect id="bar_8" width="6" height="52.75" x="104" y="23.63" fill="#000000" rx="2" ry="2"/>
    <rect id="bar_9" width="6" height="100.00" x="117" y="0.00" fill="#000000" rx="2" ry="2"/>
    <rect id="bar_10" width="6" height="97.20" x="130" y="1.40" fill="#000000" rx="2" ry="2"/>
    <rect id="bar_11" width="6" height="62.21" x="143" y="18.90" fill="#000000" rx="2" ry="2"/>
    <rect id="bar_12" width="6" height="58.51" x="156" y="20.74" fill="#000000" rx="2" ry="2"/>
    <rect id="bar_13" width="6" height="64.49" x="169" y="17.75" fill="#000000" rx="2" ry="2"/>
    <rect id="bar_14" width="6" height="85.57" x="182" y="7.21" fill="#000000" rx="2" ry="2"/>
    <rect id="bar_15" width="6" height="77.20" x="195" y="11.40" fill="#000000" rx="2" ry="2"/>
    <rect id="bar_16" width="6" height="88.24" x="208" y="5.88" fill="#000000" rx="2" ry="2"/>
    <rect id="bar_17" width="6" height="85.11" x="221" y="7.44" fill="#000000" rx="2" ry="2"/>
    <rect id="bar_18" width="6" height="68.09" x="234" y="15.96" fill="#000000" rx="2" ry="2"/>
    <rect id="bar_19" width="6" height="70.99" x="247" y="14.50" fill="#000000" rx="2" ry="2"/>
    <rect id="bar_20" width="6" height="69.40" x="260" y="15.30" fill="#000000" rx="2" ry="2"/>
    <rect id="bar_21" width="6" height="46.79" x="273" y="26.61" fill="#000000" rx="2" ry="2"/>
    <rect id="bar_22" width="6" height="31.79" x="286" y="34.10" fill="#000000" rx="2" ry="2"/>
    <rect id="bar_23" width="6" height="76.51" x="299" y="11.75" fill="#000000" rx="2" ry="2"/>
    <rect id="bar_24" width="6" height="64.12" x="312" y="17.94" fill="#000000" rx="2" ry="2"/>
    <rect id="bar_25" width="6" height="34.24" x="325" y="32.88" fill="#000000" rx="2" ry="2"/>
    <rect id="bar_26" width="6" height="73.14" x="338" y="13.43" fill="#000000" rx="2" ry="2"/>
    <rect id="bar_27" width="6" height="82.00" x="351" y="9.00" fill="#000000" rx="2" ry="2"/>
    <rect id="bar_28" width="6" height="53.83" x="364" y="23.08" fill="#000000" rx="2" ry="2"/>
    <rect id="bar_29" width="6" height="11.77" x="377" y="44.12" fill="#000000" rx="2" ry="2"/>
    <rect id="bar_30" width="6" height="10.00" x="390" y="45.00" fill="#000000" rx="2" ry="2"/>
    <rect id="bar_31" width="6" height="10.00" x="403" y="45.00" fill="#000000" rx="2" ry="2"/>
    <rect id="bar_32" width="6" height="77.74" x="416" y="11.13" fill="#000000" rx="2" ry="2"/>
    <rect id="bar_33" width="6" height="45.29" x="429" y="27.36" fill="#000000" rx="2" ry="2"/>
    <rect id="bar_34" width="6" height="44.07" x="442" y="27.96" fill="#000000" rx="2" ry="2"/>
    <rect id="bar_35" width="6" height="77.75" x="455" y="11.13" fill="#000000" rx="2" ry="2"/>
    <rect id="bar_36" width="6" height="62.95" x="468" y="18.52" fill="#000000" rx="2" ry="2"/>
    <rect id="bar_37" width="6" height="49.55" x="481" y="25.22" fill="#000000" rx="2" ry="2"/>
    <rect id="bar_38" width="6" height="85.55" x="494" y="7.23" fill="#000000" rx="2" ry="2"/>
    <rect id="bar_39" width="6" height="91.71" x="507" y="4.15" fill="#000000" rx="2" ry="2"/>
    <rect id="bar_40" width="6" height="76.72" x="520" y="11.64" fill="#000000" rx="2" ry="2"/>
    <rect id="bar_41" width="6" height="58.20" x="533" y="20.90" fill="#000000" rx="2" ry="2"/>
    <rect id="bar_42" width="6" height="73.80" x="546" y="13.10" fill="#000000" rx="2" ry="2"/>
    <rect id="bar_43" width="6" height="84.48" x="559" y="7.76" fill="#000000" rx="2" ry="2"/>
    <rect id="bar_44" width="6" height="73.65" x="572" y="13.17" fill="#000000" rx="2" ry="2"/>
    <rect id="bar_45" width="6" height="39.19" x="585" y="30.40" fill="#000000" rx="2" ry="2"/>
    <rect id="bar_46" width="6" height="61.87" x="598" y="19.06" fill="#000000" rx="2" ry="2"/>
    <rect id="bar_47" width="6" height="70.60" x="611" y="14.70" fill="#000000" rx="2" ry="2"/>
    <rect id="bar_48" width="6" height="35.40" x="624" y="32.30" fill="#000000" rx="2" ry="2"/>
    <rect id="bar_49" width="6" height="90.59" x="637" y="4.71" fill="#000000" rx="2" ry="2"/>
    <rect id="bar_50" width="6" height="78.03" x="650" y="10.98" fill="#000000" rx="2" ry="2"/>
    <rect id="bar_51" width="6" height="57.93" x="663" y="21.04" fill="#000000" rx="2" ry="2"/>
    <rect id="bar_52" width="6" height="68.52" x="676" y="15.74" fill="#000000" rx="2" ry="2"/>
    <rect id="bar_53" width="6" height="51.09" x="689" y="24.45" fill="#000000" rx="2" ry="2"/>
    <rect id="bar_54" width="6" height="15.36" x="702" y="42.32" fill="#000000" rx="2" ry="2"/>
    <rect id="bar_55" width="6" height="10.00" x="715" y="45.00" fill="#000000" rx="2" ry="2"/>
  </g>
</svg>