<svg xmlns="http://www.w3.org/2000/svg" width="1046" height="100" viewBox="0 0 1046 100">
  <g id="spectrum">
    <rect id="bar_0" width="6" height="10.00" x="0" y="45.00" fill="#000000" rx="2" ry="2"/>
    <rect id="bar_1" width="6" height="10.00" x="13" y="45.00" fill="#000000" rx="2" ry="2"/>
    <rect id="bar_2" width="6" height="10.00" x="26" y="45.00" fill="#000000" rx="2" ry="2"/>
    <rect id="bar_3" width="6" height="10.00" x="39" y="45.00" fill="#000000" rx="2" ry="2"/>
    <rect id="bar_4" width="6" height="10.00" x="52" y="45.00" fill="#000000" rx="2" ry="2"/>
    <rect id="bar_5" width="6" height="10.00" x="65" y="45.00" fill="#000000" rx="2" ry="2"/>
    <rect id="bar_6" width="6" height="10.00" x="78" y="45.00" fill="#000000" rx="2" ry="2"/>
    <rect id="bar_7" width="6" height="21.25" x="91" y="39.38" fill="#000000" rx="2" ry="2"/>
    <rect id="bar_8" width="6" height="30.41" x="104" y="34.79" fill="#000000" rx="2" ry="2"/>
    <rect id="bar_9" width="6" height="27.79" x="117" y="36.10" fill="#000000" rx="2" ry="2"/>
    <rect id="bar_10" width="6" height="21.62" x="130" y="39.19" fill="#000000" rx="2" ry="2"/>
    <rect id="bar_11" width="6" height="16.64" x="143" y="41.68" fill="#000000" rx="2" ry="2"/>
    <rect id="bar_12" width="6" height="16.11" x="156" y="41.95" fill="#000000" rx="2" ry="2"/>
    <rect id="bar_13" width="6" height="19.59" x="169" y="40.20" fill="#000000" rx="2" ry="2"/>
    <rect id="bar_14" width="6" height="18.41" x="182" y="40.80" fill="#000000" rx="2" ry="2"/>
    <rect id="bar_15" width="6" height="16.12" x="195" y="41.94" fill="#000000" rx="2" ry="2"/>
    <rect id="bar_16" width="6" height="14.90" x="208" y="42.55" fill="#000000" rx="2" ry="2"/>
    <rect id="bar_17" width="6" height="15.20" x="221" y="42.40" fill="#000000" rx="2" ry="2"/>
    <rect id="bar_18" width="6" height="13.39" x="234" y="43.30" fill="#000000" rx="2" ry="2"/>
    <rect id="bar_19" width="6" height="49.56" x="247" y="25.22" fill="#000000" rx="2" ry="2"/>
    <rect id="bar_20" width="6" height="10.00" x="260" y="45.00" fill="#000000" rx="2" ry="2"/>
    <rect id="bar_21" width="6" height="10.00" x="273" y="45.00" fill="#000000" rx="2" ry="2"/>
    <rect id="bar_22" width="6" height="64.10" x="286" y="17.95" fill="#000000" rx="2" ry="2"/>
    <rect id="bar_23" width="6" height="100.00" x="299" y="0.00" fill="#000000" rx="2" ry="2"/>
    <rect id="bar_24" width="6" height="79.69" x="312" y="10.16" fill="#000000" rx="2" ry="2"/>
    <rect id="bar_25" width="6" height="61.07" x="325" y="19.46" fill="#000000" rx="2" ry="2"/>
    <rect id="bar_26" width="6" height="82.66" x="338" y="8.67" fill="#000000" rx="2" ry="2"/>
    <rect id="bar_27" width="6" height="85.84" x="351" y="7.08" fill="#000000" rx="2" ry="2"/>
    <rect id="bar_28" width="6" height="59.68" x="364" y="20.16" fill="#000000" rx="2" ry="2"/>
    <rect id="bar_29" width="6" height="42.69" x="377" y="28.66" fill="#000000" rx="2" ry="2"/>
    <rect id="bar_30" width="6" height="91.23" x="390" y="4.39" fill="#000000" rx="2" ry="2"/>
    <rect id="bar_31" width="6" height="81.93" x="403" y="9.04" fill="#000000" rx="2" ry="2"/>
    <rect id="bar_32" width="6" height="81.94" x="416" y="9.03" fill="#000000" rx="2" ry="2"/>
    <rect id="bar_33" width="6" height="97.44" x="429" y="1.28" fill="#000000" rx="2" ry="2"/>
    <rect id="bar_34" width="6" height="86.12" x="442" y="6.94" fill="#000000" rx="2" ry="2"/>
    <rect id="bar_35" width="6" height="75.20" x="455" y="12.40" fill="#000000" rx="2" ry="2"/>
    <rect id="bar_36" width="6" height="66.50" x="468" y="16.75" fill="#000000" rx="2" ry="2"/>
    <rect id="bar_37" width="6" height="36.52" x="481" y="31.74" fill="#000000" rx="2" ry="2"/>
    <rect id="bar_38" width="6" height="34.99" x="494" y="32.50" fill="#000000" rx="2" ry="2"/>
    <rect id="bar_39" width="6" height="85.63" x="507" y="7.19" fill="#000000" rx="2" ry="2"/>
    <rect id="bar_40" width="6" height="73.41" x="520" y="13.29" fill="#000000" rx="2" ry="2"/>
    <rect id="bar_41" width="6" height="68.54" x="533" y="15.73" fill="#000000" rx="2" ry="2"/>
    <rect id="bar_42" width="6" height="68.34" x="546" y="15.83" fill="#000000" rx="2" ry="2"/>
    <rect id="bar_43" width="6" height="57.83" x="559" y="21.08" fill="#000000" rx="2" ry="2"/>
    <rect id="bar_44" width="6" height="83.82" x="572" y="8.09" fill="#000000" rx="2" ry="2"/>
    <rect id="bar_45" width="6" height="69.83" x="585" y="15.08" fill="#000000" rx="2" ry="2"/>
    <rect id="bar_46" width="6" height="48.43" x="598" y="25.78" fill="#000000" rx="2" ry="2"/>
    <rect id="bar_47" width="6" height="10.00" x="611" y="45.00" fill="#000000" rx="2" ry="2"/>
    <rect id="bar_48" width="6" height="14.25" x="624" y="42.88" fill="#000000" rx="2" ry="2"/>
    <rect id="bar_49" width="6" height="30.21" x="637" y="34.90" fill="#000000" rx="2" ry="2"/>
    <rect id="bar_50" width="6" height="35.23" x="650" y="32.38" fill="#000000" rx="2" ry="2"/>
    <rect id="bar_51" width="6" height="79.17" x="663" y="10.41" fill="#000000" rx="2" ry="2"/>
    <rect id="bar_52" width="6" height="78.62" x="676" y="10.69" fill="#000000" rx="2" ry="2"/>
    <rect id="bar_53" width="6" height="82.56" x="689" y="8.72" fill="#000000" rx="2" ry="2"/>
    <rect id="bar_54" width="6" height="87.09" x="702" y="6.45" fill="#000000" rx="2" ry="2"/>
    <rect id="bar_55" width="6" height="75.21" x="715" y="12.39" fill="#000000" rx="2" ry="2"/>
    <rect id="bar_56" width="6" height="65.20" x="728" y="17.40" fill="#000000" rx="2" ry="2"/>
    <rect id="bar_57" width="6" height="54.29" x="741" y="22.86" fill="#000000" rx="2" ry="2"/>
    <rect id="bar_58" width="6" height="76.06" x="754" y="11.97" fill="#000000" rx="2" ry="2"/>
    <rect id="bar_59" width="6" height="71.57" x="767" y="14.22" fill="#000000" rx="2" ry="2"/>
    <rect id="bar_60" width="6" height="60.82" x="780" y="19.59" fill="#000000" rx="2" ry="2"/>
    <rect id="bar_61" width="6" height="58.83" x="793" y="20.59" fill="#000000" rx="2" ry="2"/>
    <rect id="bar_62" width="6" height="81.39" x="806" y="9.31" fill="#000000" rx="2" ry="2"/>
    <rect id="bar_63" width="6" height="48.72" x="819" y="25.64" fill="#000000" rx="2" ry="2"/>
    <rect id="bar_64" width="6" height="65.86" x="832" y="17.07" fill="#000000" rx="2" ry="2"/>
    <rect id="bar_65" width="6" height="79.57" x="845" y="10.21" fill="#000000" rx="2" ry="2"/>
    <rect id="bar_66" width="6" height="87.92" x="858" y="6.04" fill="#000000" rx="2" ry="2"/>
    <rect id="bar_67" width="6" height="80.02" x="871" y="9.99" fill="#000000" rx="2" ry="2"/>
    <rect id="bar_68" width="6" height="62.58" x="884" y="18.71" fill="#000000" rx="2" ry="2"/>
    <rect id="bar_69" width="6" height="44.41" x="897" y="27.80" fill="#000000" rx="2" ry="2"/>
    <rect id="bar_70" width="6" height="69.47" x="910" y="15.27" fill="#000000" rx="2" ry="2"/>
    <rect id="bar_71" width="6" height="78.30" x="923" y="10.85" fill="#000000" rx="2" ry="2"/>
    <rect id="bar_72" width="6" height="61.12" x="936" y="19.44" fill="#000000" rx="2" ry="2"/>
    <rect id="bar_73" width="6" height="22.24" x="949" y="38.88" fill="#000000" rx="2" ry="2"/>
    <rect id="bar_74" width="6" height="10.00" x="962" y="45.00" fill="#000000" rx="2" ry="2"/>
    <rect id="bar_75" width="6" height="10.00" x="975" y="45.00" fill="#000000" rx="2" ry="2"/>
    <rect id="bar_76" width="6" height="10.00" x="988" y="45.00" fill="#000000" rx="2" ry="2"/>
    <rect id="bar_77" width="6" height="10.00" x="1001" y="45.00" fill="#000000" rx="2" ry="2"/>
    <rect id="bar_78" width="6" height="10.00" x="1014" y="45.00" fill="#000000" rx="2" ry="2"/>
    <rect id="bar_79" width="6" height="10.00" x="1027" y="45.00" fill="#000000" rx="2" ry="2"/>
    <rect id="bar_80" width="6" height="10.00" x="1040" y="45.00" fill="#000000" rx="2" ry="2"/>
  </g>
</svg>